<svg width="213" height="209" viewBox="0 0 213 209" fill="none" xmlns="http://www.w3.org/2000/svg">
<path d="M26.0816 23.9479H213V209H26.0816V23.9479Z" fill="#FFE1E1"/>
<path d="M0.5 0.5H186.418V184.552H0.5V0.5Z" stroke="black"/>
<path d="M105.224 141.24C106.184 141.432 106.664 142.008 106.664 142.968V146.808H84.104V142.968C84.104 142.072 84.552 141.528 85.448 141.336C85.832 141.336 87.304 141.048 89.864 140.472L69.992 117.624C68.776 116.408 67.784 115.704 67.016 115.512C66.44 115.384 65.64 115.32 64.616 115.32H60.392V139.896L65.768 141.048C66.792 141.24 67.304 141.816 67.304 142.776V146.904H44.168V142.776C44.168 141.816 44.648 141.24 45.608 141.048L51.08 139.896V85.176C48.008 84.6 46.184 84.216 45.608 84.024C44.648 83.832 44.168 83.224 44.168 82.2V78.072H67.304V82.2C67.304 83.224 66.792 83.832 65.768 84.024L60.392 85.176V108.216H63.848C66.088 108.216 67.752 107.576 68.84 106.296L88.04 84.408L83.816 83.64C82.92 83.448 82.472 82.872 82.472 81.912V78.072H104.168L104.36 81.72C104.36 82.744 103.848 83.352 102.824 83.544C101.928 83.864 100.456 84.248 98.408 84.696L77.96 107.832C76.744 109.24 75.496 110.264 74.216 110.904C75.624 111.288 77.096 112.44 78.632 114.36L100.424 140.28L103.016 140.856L105.32 141.336L105.224 141.24ZM163.396 94.872H158.692C157.604 94.872 156.964 94.328 156.772 93.24C156.772 93.048 156.676 92.312 156.484 91.032C156.356 89.688 156.196 87.96 156.004 85.848H128.74V109.944H154.852V117.432H128.74V140.088L134.116 141.144C135.14 141.336 135.652 141.944 135.652 142.968V147H112.42V142.968C112.42 141.944 112.9 141.336 113.86 141.144L119.332 140.088V85.272C116.26 84.696 114.436 84.312 113.86 84.12C112.9 83.928 112.42 83.32 112.42 82.296V78.264H163.396V94.872Z" fill="black"/>
</svg>
