<svg width="178" height="176" viewBox="0 0 178 176" fill="none" xmlns="http://www.w3.org/2000/svg">
<path d="M52 51H138V136H52V51Z" fill="#FFE1E1"/>
<path d="M40.5 40.5H125.5V124.5H40.5V40.5Z" stroke="black"/>
<path d="M90.112 103.12C90.592 103.216 90.832 103.504 90.832 103.984V105.904H79.552V103.984C79.552 103.536 79.776 103.264 80.224 103.168C80.416 103.168 81.152 103.024 82.432 102.736L72.496 91.312C71.888 90.704 71.392 90.352 71.008 90.256C70.72 90.192 70.32 90.16 69.808 90.16H67.696V102.448L70.384 103.024C70.896 103.12 71.152 103.408 71.152 103.888V105.952H59.584V103.888C59.584 103.408 59.824 103.12 60.304 103.024L63.04 102.448V75.088C61.504 74.8 60.592 74.608 60.304 74.512C59.824 74.416 59.584 74.112 59.584 73.6V71.536H71.152V73.6C71.152 74.112 70.896 74.416 70.384 74.512L67.696 75.088V86.608H69.424C70.544 86.608 71.376 86.288 71.92 85.648L81.52 74.704L79.408 74.32C78.96 74.224 78.736 73.936 78.736 73.456V71.536H89.584L89.68 73.36C89.68 73.872 89.424 74.176 88.912 74.272C88.464 74.432 87.728 74.624 86.704 74.848L76.48 86.416C75.872 87.12 75.248 87.632 74.608 87.952C75.312 88.144 76.048 88.72 76.816 89.68L87.712 102.64L89.008 102.928L90.16 103.168L90.112 103.12ZM119.198 79.936H116.846C116.302 79.936 115.982 79.664 115.886 79.12C115.886 79.024 115.838 78.656 115.742 78.016C115.678 77.344 115.598 76.48 115.502 75.424H101.87V87.472H114.926V91.216H101.87V102.544L104.558 103.072C105.07 103.168 105.326 103.472 105.326 103.984V106H93.7101V103.984C93.7101 103.472 93.9501 103.168 94.4301 103.072L97.1661 102.544V75.136C95.6301 74.848 94.7181 74.656 94.4301 74.56C93.9501 74.464 93.7101 74.16 93.7101 73.648V71.632H119.198V79.936Z" fill="black"/>
</svg>
